<svg width="30" height="30" viewBox="0 0 30 30" fill="none" xmlns="http://www.w3.org/2000/svg">
<g clip-path="url(#clip0_27_8)">
<rect width="30" height="30" rx="5" fill="#FF425B"/>
<g filter="url(#filter0_d_27_8)">
<path d="M10.7415 11.8824L1.75724 8.2877L3.85683 6.08561L9.36526 8.60174L9.19537 8.63995L9.42866 8.39527L9.39859 8.56679L6.62296 3.18444L8.72256 0.982353L12.7411 9.78521L10.7415 11.8824ZM15.3556 21.2198L13.7226 22.9325L7.65814 17.1503L9.29116 15.4376L15.3556 21.2198ZM18.8388 19.6028L20.8384 17.5056L29.8227 21.1003L27.7231 23.3024L22.2146 20.7863L22.3845 20.7481L22.1512 20.9928L22.1813 20.8212L24.9569 26.2036L22.8573 28.4057L18.8388 19.6028Z" fill="white"/>
</g>
</g>
<defs>
<filter id="filter0_d_27_8" x="-19.8591" y="-14.0176" width="69.6818" height="69.1186" filterUnits="userSpaceOnUse" color-interpolation-filters="sRGB">
<feFlood flood-opacity="0" result="BackgroundImageFix"/>
<feColorMatrix in="SourceAlpha" type="matrix" values="0 0 0 0 0 0 0 0 0 0 0 0 0 0 0 0 0 0 127 0" result="hardAlpha"/>
<feOffset dy="5"/>
<feGaussianBlur stdDeviation="10"/>
<feComposite in2="hardAlpha" operator="out"/>
<feColorMatrix type="matrix" values="0 0 0 0 1 0 0 0 0 0.0576923 0 0 0 0 0.0733974 0 0 0 1 0"/>
<feBlend mode="normal" in2="BackgroundImageFix" result="effect1_dropShadow_27_8"/>
<feBlend mode="normal" in="SourceGraphic" in2="effect1_dropShadow_27_8" result="shape"/>
</filter>
<clipPath id="clip0_27_8">
<rect width="30" height="30" rx="5" fill="white"/>
</clipPath>
</defs>
</svg>
